<?xml version="1.0" standalone="no"?>
<!DOCTYPE svg PUBLIC "-//W3C//DTD SVG 20010904//EN"
 "http://www.w3.org/TR/2001/REC-SVG-20010904/DTD/svg10.dtd">
<svg version="1.0" xmlns="http://www.w3.org/2000/svg"
 width="1200.000000pt" height="1200.000000pt" viewBox="0 0 1200.000000 1200.000000"
 preserveAspectRatio="xMidYMid meet">
<metadata>
Created by potrace 1.11, written by Peter Selinger 2001-2013
</metadata>
<g transform="translate(0.000000,1200.000000) scale(0.100000,-0.100000)"
fill="#000000" stroke="none">
<path d="M9351 9902 c-126 -130 -238 -246 -248 -258 -14 -17 -196 -213 -263
-284 -21 -21 -260 -289 -340 -379 -36 -41 -69 -79 -75 -85 -5 -6 -37 -43 -70
-81 -33 -39 -62 -72 -65 -75 -10 -8 -340 -398 -441 -520 -112 -136 -284 -348
-422 -520 -37 -46 -232 -295 -260 -332 -18 -24 -62 -81 -97 -127 -67 -87 -137
-178 -167 -220 -10 -13 -29 -39 -43 -57 -56 -74 -257 -348 -362 -494 -386
-539 -827 -1221 -1087 -1683 -11 -20 -29 -52 -39 -70 -55 -97 -88 -156 -103
-186 l-16 -34 -15 24 c-9 13 -46 74 -84 134 -118 192 -414 633 -476 710 -4 6
-68 89 -141 186 -109 147 -318 409 -393 495 -11 12 -41 48 -69 80 -44 52 -159
182 -237 269 -76 85 -310 326 -313 323 -5 -8 -230 -264 -235 -268 -3 -3 -42
-45 -85 -95 -44 -49 -82 -92 -85 -95 -3 -3 -34 -39 -70 -80 -36 -41 -67 -77
-70 -80 -3 -3 -37 -41 -75 -85 -39 -44 -77 -87 -85 -95 -8 -9 -25 -27 -37 -41
l-23 -25 61 -65 c33 -35 86 -91 118 -124 177 -188 427 -478 658 -765 74 -92
231 -292 278 -355 33 -44 65 -87 72 -95 7 -8 48 -64 93 -125 45 -60 87 -117
93 -125 18 -22 251 -354 350 -500 47 -69 143 -215 213 -325 70 -110 142 -222
159 -250 91 -142 222 -372 356 -623 l87 -164 35 74 c19 40 51 107 70 148 121
262 373 772 518 1050 103 198 204 391 239 455 15 28 58 106 95 175 37 69 77
139 89 155 11 17 20 32 19 35 0 3 16 34 36 70 20 36 88 155 151 265 438 770
997 1649 1539 2419 69 98 139 196 154 218 40 58 266 367 294 403 13 17 27 35
31 40 34 48 247 331 252 335 3 3 34 43 69 90 65 86 89 117 267 340 117 148
327 407 438 540 96 115 288 343 296 350 3 3 33 37 67 76 l61 70 -65 75 c-90
102 -186 210 -198 223 -5 6 -37 42 -70 81 -33 38 -70 79 -82 91 l-22 22 -230
-236z"/>
<path d="M2105 8643 c-46 -11 -129 -59 -176 -101 -42 -37 -138 -161 -131 -169
1 -2 0 -8 -3 -15 -2 -7 -8 -29 -13 -48 -13 -54 -7 -6647 6 -6688 41 -124 159
-245 287 -293 l57 -21 3308 0 c2977 0 3313 1 3361 15 136 40 256 161 303 302
15 47 16 239 14 2375 l-3 2325 -23 38 c-51 81 -144 121 -229 98 -61 -16 -108
-52 -136 -104 l-22 -42 -1 -2295 -1 -2295 -3256 0 -3257 -1 2 3256 3 3255
1970 0 1970 0 47 23 c82 40 126 123 114 215 -10 72 -44 118 -118 157 -36 20
-66 20 -2045 19 -1104 -1 -2017 -3 -2028 -6z"/>
</g>
</svg>
